<svg width="32" height="32" viewBox="0 0 32 32" fill="none" xmlns="http://www.w3.org/2000/svg">
  <rect width="32" height="32" rx="8" fill="#2563EB"/>
  <path d="M8 10C8 8.89543 8.89543 8 10 8H22C23.1046 8 24 8.89543 24 10V14C24 15.1046 23.1046 16 22 16H10C8.89543 16 8 15.1046 8 14V10Z" stroke="white" stroke-width="2"/>
  <path d="M8 18C8 16.8954 8.89543 16 10 16H22C23.1046 16 24 16.8954 24 18V22C24 23.1046 23.1046 24 22 24H10C8.89543 24 8 23.1046 8 22V18Z" stroke="white" stroke-width="2"/>
  <circle cx="20" cy="12" r="1" fill="white"/>
  <circle cx="20" cy="20" r="1" fill="#86efac"/>
  <path d="M11 12H13" stroke="white" stroke-width="1.5" stroke-linecap="round"/>
  <path d="M11 20H13" stroke="white" stroke-width="1.5" stroke-linecap="round"/>
</svg>